# xmcd
#
# Track frame offsets:
#	150
#	12902
#	28157
#	40102
#	52182
#	66047
#	78425
#	89507
#	101977
#	115250
#	127812
#	140470
#	151542
#	163737
#	175882
#	190000
#	201495
#	216650
#
# Disc length: 3053 seconds
#
# Revision: 1
# Processed by: cddbd v1.5.1PL0 Copyright (c) Steve Scherf et al.
# Submitted via: audiograbber 1.83.01
#
DISCID=000beb12
DTITLE=Autry, Gene - Golden Hits
DYEAR=1985
DGENRE=
TTITLE0=Back in the Saddle Again
TTITLE1=Tumbling Tumbleweeds
TTITLE2=That Silver-Haired Daddy of Mine
TTITLE3=Home on the Range
TTITLE4=Mexicali Rose
TTITLE5=Deep in the Heart of Texas
TTITLE6=You Are My Sunshine
TTITLE7=Sioux City Sue
TTITLE8=South of the Border (Down Mexico Way)
TTITLE9=Have I Told You Lately That I Love You
TTITLE10=Be Honest With Me
TTITLE11=Red River Valley
TTITLE12=(I've Got Spurs That) Jingle, Jangle, Jingle
TTITLE13=Someday You'll Want Me To Want You
TTITLE14=Maria Elena
TTITLE15=Tweedle-O-Twill
TTITLE16=Last Roundup, The
TTITLE17=Goodbye, Little Darlin' Goodbye
EXTD=
EXTT0=
EXTT1=
EXTT2=
EXTT3=
EXTT4=
EXTT5=
EXTT6=
EXTT7=
EXTT8=
EXTT9=
EXTT10=
EXTT11=
EXTT12=
EXTT13=
EXTT14=
EXTT15=
EXTT16=
EXTT17=
PLAYORDER=
